<svg width="40" height="55" viewBox="0 0 40 55" fill="none" xmlns="http://www.w3.org/2000/svg">
<path d="M20 0.547363C8.95 0.547363 0 12.9283 0 28.1982C0 40.4173 5.73 50.7794 13.675 54.4327C14.675 54.693 15.0417 53.8371 15.0417 53.1031C15.0417 52.4466 15.025 50.7067 15.0167 48.4017C9.45333 50.0689 8.28 44.6921 8.28 44.6921C7.37 41.5007 6.055 40.6471 6.055 40.6471C4.24333 38.933 6.195 38.9682 6.195 38.9682C8.20333 39.1605 9.25833 41.8172 9.25833 41.8172C11.0417 46.0451 13.94 44.8234 15.0833 44.1176C15.2633 42.3284 15.7783 41.1114 16.35 40.4197C11.9083 39.728 7.24 37.3502 7.24 26.7561C7.24 23.7382 8.015 21.2714 9.29833 19.3369C9.07333 18.6381 8.39833 15.8266 9.47333 12.0185C9.47333 12.0185 11.1483 11.2775 14.9733 14.8535C16.5733 14.2391 18.2733 13.9343 19.9733 13.9202C21.6733 13.9343 23.3733 14.2391 24.9733 14.8535C28.7733 11.2775 30.4483 12.0185 30.4483 12.0185C31.5233 15.8266 30.8483 18.6381 30.6483 19.3369C31.9233 21.2714 32.6983 23.7382 32.6983 26.7561C32.6983 37.3784 28.0233 39.7162 23.5733 40.3962C24.2733 41.2263 24.9233 42.9217 24.9233 45.5128C24.9233 49.213 24.8983 52.1863 24.8983 53.0844C24.8983 53.809 25.2483 54.6742 26.2733 54.3975C34.275 50.7676 40 40.3986 40 28.1982C40 12.9283 31.045 0.547363 20 0.547363Z" fill="white"/>
</svg>
