<svg width="40" height="58" viewBox="0 0 40 58" fill="none" xmlns="http://www.w3.org/2000/svg">
<path d="M39.9056 57.2274V57.2251H39.9156V36.448C39.9156 26.2836 38.3739 18.4539 30.0015 18.4539C25.9767 18.4539 23.2757 21.5886 22.1731 24.5605H22.0566V19.4028H14.1184V57.2251H22.3843V38.4969C22.3843 33.5658 23.0429 28.7976 27.3455 28.7976C31.5849 28.7976 31.6481 34.425 31.6481 38.8132V57.2274H39.9056Z" fill="white"/>
<path d="M0.658691 19.4051H8.93455V57.2274H0.658691V19.4051Z" fill="white"/>
<path d="M4.79321 0.575439C2.14713 0.575439 0 3.62284 0 7.3784C0 11.134 2.14713 14.2451 4.79321 14.2451C7.43929 14.2451 9.58642 11.134 9.58642 7.3784C9.58476 3.62284 7.43763 0.575439 4.79321 0.575439V0.575439Z" fill="white"/>
</svg>
